<svg xmlns="http://www.w3.org/2000/svg" viewBox="0 0 32 32" width="32" height="32">
  <defs>
    <linearGradient id="grad1" x1="0%" y1="0%" x2="100%" y2="100%">
      <stop offset="0%" style="stop-color:#4F46E5;stop-opacity:1" />
      <stop offset="100%" style="stop-color:#7C3AED;stop-opacity:1" />
    </linearGradient>
  </defs>
  
  <!-- Background circle -->
  <circle cx="16" cy="16" r="15" fill="url(#grad1)" stroke="#ffffff" stroke-width="1"/>
  
  <!-- Dollar sign -->
  <g fill="#ffffff">
    <!-- Vertical line -->
    <rect x="15" y="6" width="2" height="20" rx="1"/>
    
    <!-- S shape -->
    <path d="M12 10 C12 8, 14 8, 16 8 C18 8, 20 8, 20 10 C20 12, 18 12, 16 12 C14 12, 12 12, 12 14 C12 16, 14 16, 16 16 C18 16, 20 16, 20 18 C20 20, 18 20, 16 20 C14 20, 12 20, 12 18" 
          stroke="#ffffff" stroke-width="2" fill="none" stroke-linecap="round"/>
  </g>
  
  <!-- Small chart bars in corner -->
  <g fill="#ffffff" opacity="0.7">
    <rect x="24" y="22" width="2" height="4" rx="1"/>
    <rect x="26" y="20" width="2" height="6" rx="1"/>
    <rect x="28" y="18" width="2" height="8" rx="1"/>
  </g>
</svg>